<?xml version="1.0" encoding="UTF-8" standalone="no"?>
<svg xmlns="http://www.w3.org/2000/svg" xmlns:xlink="http://www.w3.org/1999/xlink" viewBox="0 0 1024.0 1024.0">
  <path d="M822.19,512.02c0,171.32 -138.88,310.2 -310.2,310.2S201.84,683.33 201.84,512.02z" fill="#FF000000"/>
  <path d="M511.99,1024a508.8,508.8 0,0 1,-199.28 -40.25,510.25 510.25,0 0,1 -162.73,-109.73 510.24,510.24 0,0 1,-109.73 -162.73A508.79,508.79 0,0 1,0 512,508.79 508.79,0 0,1 40.25,312.71a510.24,510.24 0,0 1,109.73 -162.73,510.24 510.24,0 0,1 162.73,-109.73A508.79,508.79 0,0 1,512 0a508.79,508.79 0,0 1,199.29 40.28,510.24 510.24,0 0,1 162.73,109.73 510.24,510.24 0,0 1,109.73 162.73,508.79 508.79,0 0,1 40.25,199.29 508.79,508.79 0,0 1,-40.33 199.28,510.24 510.24,0 0,1 -109.73,162.73 510.25,510.25 0,0 1,-162.73 109.73,508.8 508.8,0 0,1 -199.22,40.22zM511.99,40.05a469.01,469.01 0,0 0,-183.71 37.08,470.43 470.43,0 0,0 -150.02,101.16 470.43,470.43 0,0 0,-101.16 150.02A469,469 0,0 0,40.02 512.02a469,469 0,0 0,37.08 183.7,470.42 470.42,0 0,0 101.16,150.02 470.43,470.43 0,0 0,150.02 101.16,469.01 469.01,0 0,0 183.71,37.09 469.01,469.01 0,0 0,183.71 -37.08,470.43 470.43,0 0,0 150.02,-101.16 470.42,470.42 0,0 0,101.16 -150.02,469 469,0 0,0 37.08,-183.71 469,469 0,0 0,-37.08 -183.71,470.43 470.43,0 0,0 -101.16,-150.02 470.43,470.43 0,0 0,-150.02 -101.16A469.01,469.01 0,0 0,511.99 40.04z" fill="#FF000000"/>
  <path d="M246.07,381.8a73.26,61.92 90,1 0,123.84 0,73.26 61.92,90 1,0 -123.84,0Z" fill="#FF000000"/>
  <path d="M656.42,381.8a73.26,61.92 90,1 0,123.84 0,73.26 61.92,90 1,0 -123.84,0Z" fill="#FF000000"/>
</svg>
